<?xml version="1.0" encoding="UTF-8"?>
<svg id="Layer_2" xmlns="http://www.w3.org/2000/svg" viewBox="0 0 208.49 134.49">
  <defs>
    <style>
      .cls-1 {
        fill: #cecece;
      }

      .cls-2, .cls-3 {
        fill: none;
        stroke: #cecece;
        stroke-miterlimit: 10;
        stroke-width: 4px;
      }

      .cls-3 {
        stroke-dasharray: 9.67 9.67;
      }
    </style>
  </defs>
  <g id="Layer_2-2" data-name="Layer_2">
    <g id="Layer_1-2">
      <g>
        <g>
          <path class="cls-2" d="M203.09,14.86c1.57.56,3.13,1.13,4.7,1.72"/>
          <path class="cls-3" d="M37.7,100.28c-9.51-30.55-1.95-48.83.73-54.41C56.36,8.48,120.01-11.1,193.92,11.82"/>
          <path class="cls-2" d="M40.98,109.54c-.63-1.59-1.22-3.15-1.76-4.68"/>
        </g>
        <path class="cls-1" d="M57.1,102.34h0c.68-1.82-2.22-2.59-2.89-.8-3.73,10.04-5.44,20.77-5.03,31.47l2.8-.76c-1.77-3.51-4.83-6.01-8.03-8.17-13.1-8.84-27.46-16-42.14-21.79-1.8-.71-2.58,2.19-.8,2.89,9.14,3.6,18.04,7.8,26.63,12.55,4.25,2.36,8.43,4.84,12.52,7.46,3.56,2.28,7.26,4.68,9.22,8.57.68,1.33,2.86.69,2.8-.76-.4-10.46,1.27-20.86,4.92-30.67h0Z"/>
      </g>
    </g>
  </g>
</svg>