<?xml version="1.0" encoding="UTF-8"?>
<svg id="Layer_2" xmlns="http://www.w3.org/2000/svg" viewBox="0 0 208.5 135.39">
  <defs>
    <style>
      .cls-1 {
        fill: #cecece;
      }

      .cls-2, .cls-3 {
        fill: none;
        stroke: #cecece;
        stroke-miterlimit: 10;
        stroke-width: 4px;
      }

      .cls-3 {
        stroke-dasharray: 9.67 9.67;
      }
    </style>
  </defs>
  <g id="Layer_1-2" data-name="Layer_1">
    <g>
      <g>
        <path class="cls-2" d="M.71,16.58c1.57-.59,3.13-1.16,4.7-1.72"/>
        <path class="cls-3" d="M14.58,11.82c73.91-22.92,137.56-3.34,155.49,34.05,2.68,5.58,10.24,23.86.73,54.41"/>
        <path class="cls-2" d="M169.28,104.86c-.54,1.53-1.13,3.09-1.76,4.68"/>
      </g>
      <path class="cls-1" d="M151.4,102.33c3.65,9.81,5.32,20.21,4.92,30.67-.06,1.45,2.12,2.09,2.8.76,1.96-3.89,5.66-6.29,9.22-8.57,4.09-2.62,8.27-5.1,12.52-7.46,8.59-4.75,17.49-8.95,26.63-12.55,1.78-.7,1-3.6-.8-2.89-14.68,5.79-29.04,12.95-42.14,21.79-3.2,2.16-6.26,4.66-8.03,8.17l2.8.76c.41-10.7-1.3-21.43-5.03-31.47-.67-1.79-3.57-1.02-2.89.8h0Z"/>
    </g>
  </g>
</svg>