<?xml version="1.0" encoding="UTF-8"?>
<svg xmlns="http://www.w3.org/2000/svg" version="1.1" viewBox="0 0 208.5 135.4">
  <defs>
    <style>
      .cls-1 {
        fill: #cecece;
      }

      .cls-2, .cls-3 {
        fill: none;
        stroke: #cecece;
        stroke-miterlimit: 10;
        stroke-width: 4px;
      }

      .cls-3 {
        stroke-dasharray: 9.7 9.7;
      }
    </style>
  </defs>
  <!-- Generator: Adobe Illustrator 28.7.1, SVG Export Plug-In . SVG Version: 1.2.0 Build 142)  -->
  <g>
    <g id="Layer_2">
      <g id="Layer_1-2">
        <g>
          <g>
            <path class="cls-2" d="M.7,16.6c1.6-.6,3.1-1.2,4.7-1.7"/>
            <path class="cls-3" d="M14.6,11.8c73.9-22.9,137.6-3.3,155.5,34,2.7,5.6,10.2,23.9.7,54.4"/>
            <path class="cls-2" d="M169.3,104.9c-.5,1.5-1.1,3.1-1.8,4.7"/>
          </g>
          <path class="cls-1" d="M151.4,102.3c3.6,9.8,5.3,20.2,4.9,30.7,0,1.4,2.1,2.1,2.8.8,2-3.9,5.7-6.3,9.2-8.6,4.1-2.6,8.3-5.1,12.5-7.5,8.6-4.8,17.5-8.9,26.6-12.6,1.8-.7,1-3.6-.8-2.9-14.7,5.8-29,12.9-42.1,21.8-3.2,2.2-6.3,4.7-8,8.2l2.8.8c.4-10.7-1.3-21.4-5-31.5-.7-1.8-3.6-1-2.9.8h0Z"/>
        </g>
      </g>
    </g>
  </g>
</svg>